<?xml version="1.0" encoding="utf-8"?>
<!-- Generator: Adobe Illustrator 14.0.0, SVG Export Plug-In . SVG Version: 6.00 Build 43363)  -->
<!DOCTYPE svg PUBLIC "-//W3C//DTD SVG 1.0//EN" "http://www.w3.org/TR/2001/REC-SVG-20010904/DTD/svg10.dtd">
<svg version="1.0" xmlns="http://www.w3.org/2000/svg" xmlns:xlink="http://www.w3.org/1999/xlink" x="0px" y="0px" width="30px"
	 height="30px" viewBox="0 0 30 30" enable-background="new 0 0 30 30" xml:space="preserve">
<g id="Layer_1">
	<g>
		<line fill="none" stroke="#FFFFFF" stroke-width="0.5" x1="15.061" y1="22.511" x2="15.061" y2="7.49"/>
		<line fill="none" stroke="#FFFFFF" stroke-width="0.5" x1="7.55" y1="15" x2="22.571" y2="15"/>
		<circle fill="none" stroke="#FFFFFF" stroke-width="0.5" cx="15.061" cy="15" r="5.257"/>
	</g>
</g>
<g id="Layer_3">
	<path fill="none" stroke="#FFFFFF" stroke-width="0.5" d="M25.667,4.394c-5.858-5.858-15.356-5.858-21.213,0
		c-5.858,5.857-5.858,15.355,0,21.213s15.355,5.857,21.213,0C31.525,19.749,31.525,10.251,25.667,4.394z M22.734,22.675
		c-4.238,4.238-11.11,4.238-15.349,0l-2.794,2.794l2.794-2.794c-4.238-4.238-4.238-11.11,0-15.349c0,0,0,0,0,0L4.591,4.531
		l2.795,2.795c4.239-4.238,11.11-4.237,15.348,0l2.795-2.795l-2.795,2.795C26.973,11.564,26.973,18.436,22.734,22.675l2.795,2.794
		L22.734,22.675C22.734,22.675,22.734,22.675,22.734,22.675z"/>
</g>
</svg>
